<?xml version="1.0" standalone="no"?>
<!DOCTYPE svg PUBLIC "-//W3C//DTD SVG 20010904//EN"
 "http://www.w3.org/TR/2001/REC-SVG-20010904/DTD/svg10.dtd">
<svg version="1.0" xmlns="http://www.w3.org/2000/svg"
 width="200.000000pt" height="200.000000pt" viewBox="0 0 200.000000 200.000000"
 preserveAspectRatio="xMidYMid meet">
<metadata>
Created by potrace 1.14, written by Peter Selinger 2001-2017
</metadata>
<g transform="translate(0.000000,200.000000) scale(0.100000,-0.100000)"
fill="#000000" stroke="none">
<path d="M963 1870 c-42 -9 -60 -22 -169 -116 -50 -44 -154 -133 -230 -199
-77 -66 -141 -122 -144 -125 -5 -5 -123 -108 -190 -165 -86 -74 -100 -92 -100
-128 0 -57 34 -77 131 -77 l79 0 0 -397 c0 -384 1 -398 21 -441 13 -26 38 -54
62 -70 l40 -27 529 0 c500 0 531 1 569 19 24 11 52 36 67 59 l27 41 3 408 3
408 80 0 c72 0 82 3 104 25 16 15 25 36 25 55 0 34 -21 59 -130 150 -36 30
-67 57 -70 60 -3 3 -75 66 -160 140 -85 74 -157 137 -160 140 -3 3 -34 30 -70
60 -36 30 -82 71 -103 90 -51 46 -116 90 -136 91 -9 0 -23 2 -31 3 -8 2 -30 0
-47 -4z m108 -156 c30 -26 81 -70 114 -99 33 -29 114 -99 180 -156 66 -57 122
-106 125 -109 3 -3 47 -41 98 -84 51 -43 91 -81 88 -83 -2 -2 -21 -5 -42 -7
-44 -3 -81 -22 -87 -46 -2 -8 -4 -204 -4 -434 0 -410 -1 -420 -21 -436 -18
-15 -70 -17 -522 -17 -454 0 -504 2 -522 17 -21 16 -21 25 -22 443 -1 422 -1
427 -22 448 -13 13 -39 23 -65 26 -24 3 -45 6 -47 7 -1 2 89 81 200 177 111
96 225 194 253 219 192 170 201 177 231 179 5 1 35 -20 65 -45z"/>
<path d="M716 455 c-37 -19 -33 -88 6 -101 19 -6 205 -7 510 -4 54 0 78 18 78
60 0 51 -18 54 -309 55 -165 0 -272 -4 -285 -10z"/>
</g>
</svg>
